<svg width="217" height="42" viewBox="0 0 217 42" fill="none" xmlns="http://www.w3.org/2000/svg">
<g filter="url(#filter0_d_2_3)">
<path d="M9.38281 5.83789V15.9277H14.4277C15.1191 15.9277 15.7695 15.7988 16.3789 15.541C16.9883 15.2715 17.5215 14.9082 17.9785 14.4512C18.4355 13.9941 18.793 13.4609 19.0508 12.8516C19.3203 12.2305 19.4551 11.5742 19.4551 10.8828C19.4551 10.1914 19.3203 9.54102 19.0508 8.93164C18.793 8.31055 18.4355 7.77148 17.9785 7.31445C17.5215 6.85742 16.9883 6.5 16.3789 6.24219C15.7695 5.97266 15.1191 5.83789 14.4277 5.83789H9.38281ZM9.38281 26H4.33789V0.792969H14.4277C15.3535 0.792969 16.2441 0.916016 17.0996 1.16211C17.9551 1.39648 18.752 1.73633 19.4902 2.18164C20.2402 2.61523 20.9199 3.14258 21.5293 3.76367C22.1504 4.37305 22.6777 5.05273 23.1113 5.80273C23.5566 6.55273 23.8965 7.35547 24.1309 8.21094C24.377 9.06641 24.5 9.95703 24.5 10.8828C24.5 11.75 24.3887 12.5938 24.166 13.4141C23.9551 14.2344 23.6445 15.0137 23.2344 15.752C22.8359 16.4902 22.3438 17.1699 21.7578 17.791C21.1719 18.4121 20.5156 18.9512 19.7891 19.4082L22.584 26H17.2227L15.0254 20.9199L9.38281 20.9551V26ZM34.5898 21.3945C34.7773 21.4531 34.9648 21.4941 35.1523 21.5176C35.3398 21.5293 35.5273 21.5352 35.7148 21.5352C36.1836 21.5352 36.6348 21.4707 37.0684 21.3418C37.502 21.2129 37.9062 21.0312 38.2812 20.7969C38.668 20.5508 39.0078 20.2578 39.3008 19.918C39.6055 19.5664 39.8516 19.1797 40.0391 18.7578L43.5547 22.291C43.1094 22.9238 42.5938 23.4922 42.0078 23.9961C41.4336 24.5 40.8066 24.9277 40.127 25.2793C39.459 25.6309 38.75 25.8945 38 26.0703C37.2617 26.2578 36.5 26.3516 35.7148 26.3516C34.3906 26.3516 33.1426 26.1055 31.9707 25.6133C30.8105 25.1211 29.791 24.4355 28.9121 23.5566C28.0449 22.6777 27.3594 21.6348 26.8555 20.4277C26.3516 19.209 26.0996 17.873 26.0996 16.4199C26.0996 14.9316 26.3516 13.5723 26.8555 12.3418C27.3594 11.1113 28.0449 10.0625 28.9121 9.19531C29.791 8.32812 30.8105 7.6543 31.9707 7.17383C33.1426 6.69336 34.3906 6.45312 35.7148 6.45312C36.5 6.45312 37.2676 6.54688 38.0176 6.73438C38.7676 6.92188 39.4766 7.19141 40.1445 7.54297C40.8242 7.89453 41.457 8.32812 42.043 8.84375C42.6289 9.34766 43.1445 9.91602 43.5898 10.5488L34.5898 21.3945ZM37.0508 11.498C36.8281 11.416 36.6055 11.3633 36.3828 11.3398C36.1719 11.3164 35.9492 11.3047 35.7148 11.3047C35.0586 11.3047 34.4375 11.4277 33.8516 11.6738C33.2773 11.9082 32.7734 12.248 32.3398 12.6934C31.918 13.1387 31.584 13.6777 31.3379 14.3105C31.0918 14.9316 30.9688 15.6348 30.9688 16.4199C30.9688 16.5957 30.9746 16.7949 30.9863 17.0176C31.0098 17.2402 31.0391 17.4688 31.0742 17.7031C31.1211 17.9258 31.1738 18.1426 31.2324 18.3535C31.291 18.5645 31.3672 18.752 31.4609 18.916L37.0508 11.498ZM50.8496 33.1719H46.0156V7.17383H47.1758L49.0918 9.44141C49.5254 9.03125 50 8.64453 50.5156 8.28125C51.0312 7.91797 51.5645 7.60742 52.1152 7.34961C52.6777 7.08008 53.2578 6.86914 53.8555 6.7168C54.4531 6.56445 55.0566 6.48828 55.666 6.48828C56.9902 6.48828 58.2324 6.72852 59.3926 7.20898C60.5645 7.67773 61.584 8.3457 62.4512 9.21289C63.3301 10.0801 64.0215 11.1289 64.5254 12.3594C65.0293 13.5781 65.2812 14.9316 65.2812 16.4199C65.2812 17.9668 65.0293 19.3613 64.5254 20.6035C64.0215 21.834 63.3301 22.8828 62.4512 23.75C61.584 24.6055 60.5645 25.2617 59.3926 25.7188C58.2324 26.1758 56.9902 26.4043 55.666 26.4043C55.2441 26.4043 54.8223 26.3574 54.4004 26.2637C53.9902 26.1699 53.5801 26.0469 53.1699 25.8945C52.7715 25.7305 52.373 25.5488 51.9746 25.3496C51.5879 25.1504 51.2129 24.9453 50.8496 24.7344V33.1719ZM60.4648 16.4199C60.4648 15.623 60.3359 14.9082 60.0781 14.2754C59.832 13.6426 59.4922 13.1094 59.0586 12.6758C58.625 12.2305 58.1152 11.8906 57.5293 11.6562C56.9434 11.4219 56.3223 11.3047 55.666 11.3047C55.0098 11.3047 54.3887 11.4219 53.8027 11.6562C53.2285 11.8906 52.7246 12.2305 52.291 12.6758C51.8574 13.1094 51.5117 13.6426 51.2539 14.2754C51.0078 14.9082 50.8848 15.623 50.8848 16.4199C50.8848 17.1816 51.0078 17.8789 51.2539 18.5117C51.5117 19.1445 51.8574 19.6836 52.291 20.1289C52.7246 20.5742 53.2285 20.9199 53.8027 21.166C54.3887 21.4121 55.0098 21.5352 55.666 21.5352C56.3223 21.5352 56.9434 21.4121 57.5293 21.166C58.1152 20.9199 58.625 20.5742 59.0586 20.1289C59.4922 19.6836 59.832 19.1445 60.0781 18.5117C60.3359 17.8789 60.4648 17.1816 60.4648 16.4199ZM78.2891 26H67.3203V21.2188H78.2891C78.6172 21.2188 78.8984 21.1016 79.1328 20.8672C79.3672 20.6328 79.4844 20.3516 79.4844 20.0234C79.4844 19.6836 79.3672 19.4609 79.1328 19.3555C78.8984 19.25 78.6172 19.1973 78.2891 19.1973H73.2969C72.4648 19.1973 71.6855 19.0391 70.959 18.7227C70.2324 18.4062 69.5996 17.9785 69.0605 17.4395C68.5215 16.8887 68.0938 16.25 67.7773 15.5234C67.4727 14.7969 67.3203 14.0176 67.3203 13.1855C67.3203 12.3535 67.4727 11.5742 67.7773 10.8477C68.0938 10.1211 68.5215 9.48828 69.0605 8.94922C69.5996 8.41016 70.2324 7.98828 70.959 7.68359C71.6855 7.36719 72.4648 7.20898 73.2969 7.20898H83.0176V11.9902H73.2969C72.9688 11.9902 72.6875 12.1074 72.4531 12.3418C72.2188 12.5762 72.1016 12.8574 72.1016 13.1855C72.1016 13.5254 72.2188 13.8184 72.4531 14.0645C72.6875 14.2988 72.9688 14.416 73.2969 14.416H78.2891C79.1094 14.416 79.8828 14.5566 80.6094 14.8379C81.3359 15.1074 81.9688 15.4883 82.5078 15.9805C83.0469 16.4727 83.4746 17.0645 83.791 17.7559C84.1074 18.4473 84.2656 19.2031 84.2656 20.0234C84.2656 20.8555 84.1074 21.6348 83.791 22.3613C83.4746 23.0762 83.0469 23.709 82.5078 24.2598C81.9688 24.7988 81.3359 25.2266 80.6094 25.543C79.8828 25.8477 79.1094 26 78.2891 26ZM115.08 26H97.4316V0.792969H102.477V20.9551H115.08V26ZM134.908 16.4199C134.908 17.8262 134.656 19.1387 134.152 20.3574C133.648 21.5645 132.963 22.6133 132.096 23.5039C131.229 24.3828 130.209 25.0801 129.037 25.5957C127.877 26.0996 126.629 26.3516 125.293 26.3516C123.969 26.3516 122.721 26.0996 121.549 25.5957C120.389 25.0801 119.369 24.3828 118.49 23.5039C117.623 22.6133 116.938 21.5645 116.434 20.3574C115.93 19.1387 115.678 17.8262 115.678 16.4199C115.678 14.9902 115.93 13.666 116.434 12.4473C116.938 11.2285 117.623 10.1797 118.49 9.30078C119.369 8.41016 120.389 7.71289 121.549 7.20898C122.721 6.70508 123.969 6.45312 125.293 6.45312C126.629 6.45312 127.877 6.69336 129.037 7.17383C130.209 7.64258 131.229 8.31641 132.096 9.19531C132.963 10.0625 133.648 11.1113 134.152 12.3418C134.656 13.5605 134.908 14.9199 134.908 16.4199ZM130.074 16.4199C130.074 15.6465 129.945 14.9492 129.688 14.3281C129.441 13.6953 129.102 13.1562 128.668 12.7109C128.234 12.2539 127.725 11.9082 127.139 11.6738C126.564 11.4277 125.949 11.3047 125.293 11.3047C124.637 11.3047 124.016 11.4277 123.43 11.6738C122.855 11.9082 122.352 12.2539 121.918 12.7109C121.496 13.1562 121.162 13.6953 120.916 14.3281C120.67 14.9492 120.547 15.6465 120.547 16.4199C120.547 17.1465 120.67 17.8203 120.916 18.4414C121.162 19.0625 121.496 19.6016 121.918 20.0586C122.352 20.5156 122.855 20.8789 123.43 21.1484C124.016 21.4062 124.637 21.5352 125.293 21.5352C125.949 21.5352 126.564 21.4121 127.139 21.166C127.725 20.9199 128.234 20.5742 128.668 20.1289C129.102 19.6836 129.441 19.1445 129.688 18.5117C129.945 17.8789 130.074 17.1816 130.074 16.4199ZM150.957 16.4199C150.957 15.7637 150.828 15.1309 150.57 14.5215C150.324 13.9004 149.984 13.3555 149.551 12.8867C149.117 12.4062 148.607 12.0254 148.021 11.7441C147.447 11.4512 146.832 11.3047 146.176 11.3047C145.52 11.3047 144.898 11.416 144.312 11.6387C143.738 11.8613 143.234 12.1895 142.801 12.623C142.379 13.0566 142.045 13.5957 141.799 14.2402C141.553 14.873 141.43 15.5996 141.43 16.4199C141.43 17.2051 141.553 17.9141 141.799 18.5469C142.045 19.168 142.379 19.7012 142.801 20.1465C143.234 20.5918 143.738 20.9375 144.312 21.1836C144.898 21.418 145.52 21.5352 146.176 21.5352C146.832 21.5352 147.447 21.3945 148.021 21.1133C148.607 20.8203 149.117 20.4395 149.551 19.9707C149.984 19.4902 150.324 18.9453 150.57 18.3359C150.828 17.7148 150.957 17.0762 150.957 16.4199ZM155.791 23.627C155.791 24.9512 155.539 26.1934 155.035 27.3535C154.531 28.5137 153.84 29.5273 152.961 30.3945C152.094 31.2617 151.074 31.9473 149.902 32.4512C148.742 32.9551 147.5 33.207 146.176 33.207L143.768 33.1719V28.373L146.141 28.4082C146.891 28.4082 147.529 28.3086 148.057 28.1094C148.584 27.9219 149.029 27.6582 149.393 27.3184C149.756 26.9902 150.043 26.6094 150.254 26.1758C150.477 25.7422 150.652 25.2852 150.781 24.8047C150.594 25.1094 150.324 25.3613 149.973 25.5605C149.621 25.748 149.229 25.9004 148.795 26.0176C148.373 26.1465 147.928 26.2344 147.459 26.2812C147.002 26.3281 146.574 26.3516 146.176 26.3516C144.852 26.3516 143.604 26.123 142.432 25.666C141.271 25.209 140.252 24.5586 139.373 23.7148C138.506 22.8594 137.82 21.8164 137.316 20.5859C136.812 19.3555 136.561 17.9668 136.561 16.4199C136.561 15.002 136.812 13.6836 137.316 12.4648C137.82 11.2461 138.506 10.1914 139.373 9.30078C140.252 8.41016 141.271 7.71289 142.432 7.20898C143.604 6.70508 144.852 6.45312 146.176 6.45312C146.785 6.45312 147.389 6.5293 147.986 6.68164C148.584 6.83398 149.164 7.04492 149.727 7.31445C150.289 7.58398 150.822 7.90039 151.326 8.26367C151.842 8.62695 152.322 9.01953 152.768 9.44141L154.631 7.20898H155.791V23.627ZM172.859 16.4199C172.859 15.7637 172.73 15.1309 172.473 14.5215C172.227 13.9004 171.887 13.3555 171.453 12.8867C171.02 12.4062 170.51 12.0254 169.924 11.7441C169.35 11.4512 168.734 11.3047 168.078 11.3047C167.422 11.3047 166.801 11.416 166.215 11.6387C165.641 11.8613 165.137 12.1895 164.703 12.623C164.281 13.0566 163.947 13.5957 163.701 14.2402C163.455 14.873 163.332 15.5996 163.332 16.4199C163.332 17.2051 163.455 17.9141 163.701 18.5469C163.947 19.168 164.281 19.7012 164.703 20.1465C165.137 20.5918 165.641 20.9375 166.215 21.1836C166.801 21.418 167.422 21.5352 168.078 21.5352C168.734 21.5352 169.35 21.3945 169.924 21.1133C170.51 20.8203 171.02 20.4395 171.453 19.9707C171.887 19.4902 172.227 18.9453 172.473 18.3359C172.73 17.7148 172.859 17.0762 172.859 16.4199ZM177.693 23.627C177.693 24.9512 177.441 26.1934 176.938 27.3535C176.434 28.5137 175.742 29.5273 174.863 30.3945C173.996 31.2617 172.977 31.9473 171.805 32.4512C170.645 32.9551 169.402 33.207 168.078 33.207L165.67 33.1719V28.373L168.043 28.4082C168.793 28.4082 169.432 28.3086 169.959 28.1094C170.486 27.9219 170.932 27.6582 171.295 27.3184C171.658 26.9902 171.945 26.6094 172.156 26.1758C172.379 25.7422 172.555 25.2852 172.684 24.8047C172.496 25.1094 172.227 25.3613 171.875 25.5605C171.523 25.748 171.131 25.9004 170.697 26.0176C170.275 26.1465 169.83 26.2344 169.361 26.2812C168.904 26.3281 168.477 26.3516 168.078 26.3516C166.754 26.3516 165.506 26.123 164.334 25.666C163.174 25.209 162.154 24.5586 161.275 23.7148C160.408 22.8594 159.723 21.8164 159.219 20.5859C158.715 19.3555 158.463 17.9668 158.463 16.4199C158.463 15.002 158.715 13.6836 159.219 12.4648C159.723 11.2461 160.408 10.1914 161.275 9.30078C162.154 8.41016 163.174 7.71289 164.334 7.20898C165.506 6.70508 166.754 6.45312 168.078 6.45312C168.688 6.45312 169.291 6.5293 169.889 6.68164C170.486 6.83398 171.066 7.04492 171.629 7.31445C172.191 7.58398 172.725 7.90039 173.229 8.26367C173.744 8.62695 174.225 9.01953 174.67 9.44141L176.533 7.20898H177.693V23.627ZM188.855 21.3945C189.043 21.4531 189.23 21.4941 189.418 21.5176C189.605 21.5293 189.793 21.5352 189.98 21.5352C190.449 21.5352 190.9 21.4707 191.334 21.3418C191.768 21.2129 192.172 21.0312 192.547 20.7969C192.934 20.5508 193.273 20.2578 193.566 19.918C193.871 19.5664 194.117 19.1797 194.305 18.7578L197.82 22.291C197.375 22.9238 196.859 23.4922 196.273 23.9961C195.699 24.5 195.072 24.9277 194.393 25.2793C193.725 25.6309 193.016 25.8945 192.266 26.0703C191.527 26.2578 190.766 26.3516 189.98 26.3516C188.656 26.3516 187.408 26.1055 186.236 25.6133C185.076 25.1211 184.057 24.4355 183.178 23.5566C182.311 22.6777 181.625 21.6348 181.121 20.4277C180.617 19.209 180.365 17.873 180.365 16.4199C180.365 14.9316 180.617 13.5723 181.121 12.3418C181.625 11.1113 182.311 10.0625 183.178 9.19531C184.057 8.32812 185.076 7.6543 186.236 7.17383C187.408 6.69336 188.656 6.45312 189.98 6.45312C190.766 6.45312 191.533 6.54688 192.283 6.73438C193.033 6.92188 193.742 7.19141 194.41 7.54297C195.09 7.89453 195.723 8.32812 196.309 8.84375C196.895 9.34766 197.41 9.91602 197.855 10.5488L188.855 21.3945ZM191.316 11.498C191.094 11.416 190.871 11.3633 190.648 11.3398C190.438 11.3164 190.215 11.3047 189.98 11.3047C189.324 11.3047 188.703 11.4277 188.117 11.6738C187.543 11.9082 187.039 12.248 186.605 12.6934C186.184 13.1387 185.85 13.6777 185.604 14.3105C185.357 14.9316 185.234 15.6348 185.234 16.4199C185.234 16.5957 185.24 16.7949 185.252 17.0176C185.275 17.2402 185.305 17.4688 185.34 17.7031C185.387 17.9258 185.439 18.1426 185.498 18.3535C185.557 18.5645 185.633 18.752 185.727 18.916L191.316 11.498ZM205.08 26H200.281V7.17383H201.441L203.023 9.40625C203.797 8.70312 204.676 8.16406 205.66 7.78906C206.645 7.40234 207.664 7.20898 208.719 7.20898H212.955V11.9902H208.719C208.215 11.9902 207.74 12.084 207.295 12.2715C206.85 12.459 206.463 12.7168 206.135 13.0449C205.807 13.373 205.549 13.7598 205.361 14.2051C205.174 14.6504 205.08 15.125 205.08 15.6289V26Z" fill="white"/>
</g>
<defs>
<filter id="filter0_d_2_3" x="0.337891" y="0.792969" width="216.617" height="40.4141" filterUnits="userSpaceOnUse" color-interpolation-filters="sRGB">
<feFlood flood-opacity="0" result="BackgroundImageFix"/>
<feColorMatrix in="SourceAlpha" type="matrix" values="0 0 0 0 0 0 0 0 0 0 0 0 0 0 0 0 0 0 127 0" result="hardAlpha"/>
<feOffset dy="4"/>
<feGaussianBlur stdDeviation="2"/>
<feComposite in2="hardAlpha" operator="out"/>
<feColorMatrix type="matrix" values="0 0 0 0 0 0 0 0 0 0 0 0 0 0 0 0 0 0 0.25 0"/>
<feBlend mode="normal" in2="BackgroundImageFix" result="effect1_dropShadow_2_3"/>
<feBlend mode="normal" in="SourceGraphic" in2="effect1_dropShadow_2_3" result="shape"/>
</filter>
</defs>
</svg>
