<svg width="156" height="32" viewBox="0 0 156 32" fill="none" xmlns="http://www.w3.org/2000/svg">
<g filter="url(#filter0_d_2_3)">
<path d="M13.296 17L9.6 10.472H8.016V17H4.656V0.248H10.944C12.24 0.248 13.344 0.48 14.256 0.943999C15.168 1.392 15.848 2.008 16.296 2.792C16.76 3.56 16.992 4.424 16.992 5.384C16.992 6.488 16.672 7.488 16.032 8.384C15.392 9.264 14.44 9.872 13.176 10.208L17.184 17H13.296ZM8.016 7.952H10.824C11.736 7.952 12.416 7.736 12.864 7.304C13.312 6.856 13.536 6.24 13.536 5.456C13.536 4.688 13.312 4.096 12.864 3.68C12.416 3.248 11.736 3.032 10.824 3.032H8.016V7.952ZM32.391 10.064C32.391 10.544 32.359 10.976 32.295 11.36H22.575C22.655 12.32 22.991 13.072 23.583 13.616C24.175 14.16 24.903 14.432 25.767 14.432C27.015 14.432 27.903 13.896 28.431 12.824H32.055C31.671 14.104 30.935 15.16 29.847 15.992C28.759 16.808 27.423 17.216 25.839 17.216C24.559 17.216 23.407 16.936 22.383 16.376C21.375 15.8 20.583 14.992 20.007 13.952C19.447 12.912 19.167 11.712 19.167 10.352C19.167 8.976 19.447 7.768 20.007 6.728C20.567 5.688 21.351 4.888 22.359 4.328C23.367 3.768 24.527 3.488 25.839 3.488C27.103 3.488 28.231 3.76 29.223 4.304C30.231 4.848 31.007 5.624 31.551 6.632C32.111 7.624 32.391 8.768 32.391 10.064ZM28.911 9.104C28.895 8.24 28.583 7.552 27.975 7.04C27.367 6.512 26.623 6.248 25.743 6.248C24.911 6.248 24.207 6.504 23.631 7.016C23.071 7.512 22.727 8.208 22.599 9.104H28.911ZM38.2035 5.624C38.6355 5.016 39.2275 4.512 39.9795 4.112C40.7475 3.696 41.6195 3.488 42.5955 3.488C43.7315 3.488 44.7555 3.768 45.6675 4.328C46.5955 4.888 47.3235 5.688 47.8515 6.728C48.3955 7.752 48.6675 8.944 48.6675 10.304C48.6675 11.664 48.3955 12.872 47.8515 13.928C47.3235 14.968 46.5955 15.776 45.6675 16.352C44.7555 16.928 43.7315 17.216 42.5955 17.216C41.6195 17.216 40.7555 17.016 40.0035 16.616C39.2675 16.216 38.6675 15.712 38.2035 15.104V23.336H34.8435V3.704H38.2035V5.624ZM45.2355 10.304C45.2355 9.504 45.0675 8.816 44.7315 8.24C44.4115 7.648 43.9795 7.2 43.4355 6.896C42.9075 6.592 42.3315 6.44 41.7075 6.44C41.0995 6.44 40.5235 6.6 39.9795 6.92C39.4515 7.224 39.0195 7.672 38.6835 8.264C38.3635 8.856 38.2035 9.552 38.2035 10.352C38.2035 11.152 38.3635 11.848 38.6835 12.44C39.0195 13.032 39.4515 13.488 39.9795 13.808C40.5235 14.112 41.0995 14.264 41.7075 14.264C42.3315 14.264 42.9075 14.104 43.4355 13.784C43.9795 13.464 44.4115 13.008 44.7315 12.416C45.0675 11.824 45.2355 11.12 45.2355 10.304ZM56.1971 17.216C55.1091 17.216 54.1331 17.024 53.2691 16.64C52.4051 16.24 51.7171 15.704 51.2051 15.032C50.7091 14.36 50.4371 13.616 50.3891 12.8H53.7731C53.8371 13.312 54.0851 13.736 54.5171 14.072C54.9651 14.408 55.5171 14.576 56.1731 14.576C56.8131 14.576 57.3091 14.448 57.6611 14.192C58.0291 13.936 58.2131 13.608 58.2131 13.208C58.2131 12.776 57.9891 12.456 57.5411 12.248C57.1091 12.024 56.4131 11.784 55.4531 11.528C54.4611 11.288 53.6451 11.04 53.0051 10.784C52.3811 10.528 51.8371 10.136 51.3731 9.608C50.9251 9.08 50.7011 8.368 50.7011 7.472C50.7011 6.736 50.9091 6.064 51.3251 5.456C51.7571 4.848 52.3651 4.368 53.1491 4.016C53.9491 3.664 54.8851 3.488 55.9571 3.488C57.5411 3.488 58.8051 3.888 59.7491 4.688C60.6931 5.472 61.2131 6.536 61.3091 7.88H58.0931C58.0451 7.352 57.8211 6.936 57.4211 6.632C57.0371 6.312 56.5171 6.152 55.8611 6.152C55.2531 6.152 54.7811 6.264 54.4451 6.488C54.1251 6.712 53.9651 7.024 53.9651 7.424C53.9651 7.872 54.1891 8.216 54.6371 8.456C55.0851 8.68 55.7811 8.912 56.7251 9.152C57.6851 9.392 58.4771 9.64 59.1011 9.896C59.7251 10.152 60.2611 10.552 60.7091 11.096C61.1731 11.624 61.4131 12.328 61.4291 13.208C61.4291 13.976 61.2131 14.664 60.7811 15.272C60.3651 15.88 59.7571 16.36 58.9571 16.712C58.1731 17.048 57.2531 17.216 56.1971 17.216ZM73.266 14.336H78.786V17H69.906V0.248H73.266V14.336ZM86.8256 17.216C85.5456 17.216 84.3936 16.936 83.3696 16.376C82.3456 15.8 81.5376 14.992 80.9456 13.952C80.3696 12.912 80.0816 11.712 80.0816 10.352C80.0816 8.992 80.3776 7.792 80.9696 6.752C81.5776 5.712 82.4016 4.912 83.4416 4.352C84.4816 3.776 85.6416 3.488 86.9216 3.488C88.2016 3.488 89.3616 3.776 90.4016 4.352C91.4416 4.912 92.2576 5.712 92.8496 6.752C93.4576 7.792 93.7616 8.992 93.7616 10.352C93.7616 11.712 93.4496 12.912 92.8256 13.952C92.2176 14.992 91.3856 15.8 90.3296 16.376C89.2896 16.936 88.1216 17.216 86.8256 17.216ZM86.8256 14.288C87.4336 14.288 88.0016 14.144 88.5296 13.856C89.0736 13.552 89.5056 13.104 89.8256 12.512C90.1456 11.92 90.3056 11.2 90.3056 10.352C90.3056 9.088 89.9696 8.12 89.2976 7.448C88.6416 6.76 87.8336 6.416 86.8736 6.416C85.9136 6.416 85.1056 6.76 84.4496 7.448C83.8096 8.12 83.4896 9.088 83.4896 10.352C83.4896 11.616 83.8016 12.592 84.4256 13.28C85.0656 13.952 85.8656 14.288 86.8256 14.288ZM101.434 3.488C102.426 3.488 103.298 3.688 104.05 4.088C104.802 4.472 105.394 4.976 105.826 5.6V3.704H109.21V17.096C109.21 18.328 108.962 19.424 108.466 20.384C107.97 21.36 107.226 22.128 106.234 22.688C105.242 23.264 104.042 23.552 102.634 23.552C100.746 23.552 99.1943 23.112 97.9783 22.232C96.7783 21.352 96.0983 20.152 95.9383 18.632H99.2743C99.4503 19.24 99.8263 19.72 100.402 20.072C100.994 20.44 101.706 20.624 102.538 20.624C103.514 20.624 104.306 20.328 104.914 19.736C105.522 19.16 105.826 18.28 105.826 17.096V15.032C105.394 15.656 104.794 16.176 104.026 16.592C103.274 17.008 102.41 17.216 101.434 17.216C100.314 17.216 99.2903 16.928 98.3623 16.352C97.4343 15.776 96.6983 14.968 96.1543 13.928C95.6263 12.872 95.3623 11.664 95.3623 10.304C95.3623 8.96 95.6263 7.768 96.1543 6.728C96.6983 5.688 97.4263 4.888 98.3383 4.328C99.2663 3.768 100.298 3.488 101.434 3.488ZM105.826 10.352C105.826 9.536 105.666 8.84 105.346 8.264C105.026 7.672 104.594 7.224 104.05 6.92C103.506 6.6 102.922 6.44 102.298 6.44C101.674 6.44 101.098 6.592 100.57 6.896C100.042 7.2 99.6103 7.648 99.2743 8.24C98.9543 8.816 98.7943 9.504 98.7943 10.304C98.7943 11.104 98.9543 11.808 99.2743 12.416C99.6103 13.008 100.042 13.464 100.57 13.784C101.114 14.104 101.69 14.264 102.298 14.264C102.922 14.264 103.506 14.112 104.05 13.808C104.594 13.488 105.026 13.04 105.346 12.464C105.666 11.872 105.826 11.168 105.826 10.352ZM117.7 3.488C118.692 3.488 119.564 3.688 120.316 4.088C121.068 4.472 121.66 4.976 122.092 5.6V3.704H125.476V17.096C125.476 18.328 125.228 19.424 124.732 20.384C124.236 21.36 123.492 22.128 122.5 22.688C121.508 23.264 120.308 23.552 118.9 23.552C117.012 23.552 115.46 23.112 114.244 22.232C113.044 21.352 112.364 20.152 112.204 18.632H115.54C115.716 19.24 116.092 19.72 116.668 20.072C117.26 20.44 117.972 20.624 118.804 20.624C119.78 20.624 120.572 20.328 121.18 19.736C121.788 19.16 122.092 18.28 122.092 17.096V15.032C121.66 15.656 121.06 16.176 120.292 16.592C119.54 17.008 118.676 17.216 117.7 17.216C116.58 17.216 115.556 16.928 114.628 16.352C113.7 15.776 112.964 14.968 112.42 13.928C111.892 12.872 111.628 11.664 111.628 10.304C111.628 8.96 111.892 7.768 112.42 6.728C112.964 5.688 113.692 4.888 114.604 4.328C115.532 3.768 116.564 3.488 117.7 3.488ZM122.092 10.352C122.092 9.536 121.932 8.84 121.612 8.264C121.292 7.672 120.86 7.224 120.316 6.92C119.772 6.6 119.188 6.44 118.564 6.44C117.94 6.44 117.364 6.592 116.836 6.896C116.308 7.2 115.876 7.648 115.54 8.24C115.22 8.816 115.06 9.504 115.06 10.304C115.06 11.104 115.22 11.808 115.54 12.416C115.876 13.008 116.308 13.464 116.836 13.784C117.38 14.104 117.956 14.264 118.564 14.264C119.188 14.264 119.772 14.112 120.316 13.808C120.86 13.488 121.292 13.04 121.612 12.464C121.932 11.872 122.092 11.168 122.092 10.352ZM141.118 10.064C141.118 10.544 141.086 10.976 141.022 11.36H131.302C131.382 12.32 131.718 13.072 132.31 13.616C132.902 14.16 133.63 14.432 134.494 14.432C135.742 14.432 136.63 13.896 137.158 12.824H140.782C140.398 14.104 139.662 15.16 138.574 15.992C137.486 16.808 136.15 17.216 134.566 17.216C133.286 17.216 132.134 16.936 131.11 16.376C130.102 15.8 129.31 14.992 128.734 13.952C128.174 12.912 127.894 11.712 127.894 10.352C127.894 8.976 128.174 7.768 128.734 6.728C129.294 5.688 130.078 4.888 131.086 4.328C132.094 3.768 133.254 3.488 134.566 3.488C135.83 3.488 136.958 3.76 137.95 4.304C138.958 4.848 139.734 5.624 140.278 6.632C140.838 7.624 141.118 8.768 141.118 10.064ZM137.638 9.104C137.622 8.24 137.31 7.552 136.702 7.04C136.094 6.512 135.35 6.248 134.47 6.248C133.638 6.248 132.934 6.504 132.358 7.016C131.798 7.512 131.454 8.208 131.326 9.104H137.638ZM146.93 5.768C147.362 5.064 147.922 4.512 148.61 4.112C149.314 3.712 150.114 3.512 151.01 3.512V7.04H150.122C149.066 7.04 148.266 7.288 147.722 7.784C147.194 8.28 146.93 9.144 146.93 10.376V17H143.57V3.704H146.93V5.768Z" fill="#1E293B"/>
</g>
<defs>
<filter id="filter0_d_2_3" x="0.656006" y="0.247986" width="154.354" height="31.304" filterUnits="userSpaceOnUse" color-interpolation-filters="sRGB">
<feFlood flood-opacity="0" result="BackgroundImageFix"/>
<feColorMatrix in="SourceAlpha" type="matrix" values="0 0 0 0 0 0 0 0 0 0 0 0 0 0 0 0 0 0 127 0" result="hardAlpha"/>
<feOffset dy="4"/>
<feGaussianBlur stdDeviation="2"/>
<feComposite in2="hardAlpha" operator="out"/>
<feColorMatrix type="matrix" values="0 0 0 0 0 0 0 0 0 0 0 0 0 0 0 0 0 0 0.25 0"/>
<feBlend mode="normal" in2="BackgroundImageFix" result="effect1_dropShadow_2_3"/>
<feBlend mode="normal" in="SourceGraphic" in2="effect1_dropShadow_2_3" result="shape"/>
</filter>
</defs>
</svg>
