<svg width="154" height="31" viewBox="0 0 154 31" fill="none" xmlns="http://www.w3.org/2000/svg">
<g filter="url(#filter0_d_2_3)">
<path d="M5.376 17C5.2 17 5.056 16.944 4.944 16.832C4.832 16.72 4.776 16.576 4.776 16.4V0.8C4.776 0.623999 4.832 0.479999 4.944 0.368C5.056 0.255999 5.2 0.199999 5.376 0.199999H11.736C13.736 0.199999 15.312 0.663999 16.464 1.592C17.616 2.504 18.192 3.824 18.192 5.552C18.192 6.72 17.912 7.696 17.352 8.48C16.792 9.264 16.04 9.848 15.096 10.232L18.48 16.232C18.528 16.328 18.552 16.416 18.552 16.496C18.552 16.624 18.504 16.744 18.408 16.856C18.312 16.952 18.192 17 18.048 17H15.384C15.096 17 14.88 16.928 14.736 16.784C14.592 16.624 14.488 16.48 14.424 16.352L11.496 10.856H8.592V16.4C8.592 16.576 8.536 16.72 8.424 16.832C8.312 16.944 8.168 17 7.992 17H5.376ZM8.592 7.808H11.664C12.544 7.808 13.192 7.608 13.608 7.208C14.04 6.808 14.256 6.248 14.256 5.528C14.256 4.808 14.048 4.24 13.632 3.824C13.216 3.408 12.56 3.2 11.664 3.2H8.592V7.808ZM26.2753 17.24C24.4353 17.24 22.9713 16.728 21.8833 15.704C20.8113 14.68 20.2433 13.192 20.1793 11.24C20.1793 11.112 20.1793 10.944 20.1793 10.736C20.1793 10.512 20.1793 10.336 20.1793 10.208C20.2433 8.976 20.5233 7.92 21.0193 7.04C21.5153 6.144 22.2113 5.464 23.1073 5C24.0033 4.52 25.0513 4.28 26.2513 4.28C27.5953 4.28 28.7153 4.56 29.6113 5.12C30.5233 5.664 31.2033 6.416 31.6513 7.376C32.1153 8.32 32.3473 9.408 32.3473 10.64V11.192C32.3473 11.352 32.2833 11.488 32.1553 11.6C32.0433 11.712 31.9073 11.768 31.7473 11.768H23.8993C23.8993 11.784 23.8993 11.816 23.8993 11.864C23.8993 11.896 23.8993 11.928 23.8993 11.96C23.9153 12.472 24.0113 12.944 24.1873 13.376C24.3793 13.792 24.6433 14.128 24.9793 14.384C25.3313 14.64 25.7473 14.768 26.2273 14.768C26.6273 14.768 26.9553 14.712 27.2113 14.6C27.4673 14.488 27.6753 14.352 27.8353 14.192C28.0113 14.032 28.1393 13.896 28.2193 13.784C28.3633 13.624 28.4753 13.528 28.5553 13.496C28.6513 13.448 28.7953 13.424 28.9873 13.424H31.4833C31.6433 13.424 31.7713 13.472 31.8673 13.568C31.9793 13.648 32.0273 13.768 32.0113 13.928C31.9953 14.184 31.8593 14.504 31.6033 14.888C31.3633 15.256 31.0033 15.624 30.5233 15.992C30.0433 16.344 29.4433 16.64 28.7233 16.88C28.0193 17.12 27.2033 17.24 26.2753 17.24ZM23.8993 9.584H28.6033V9.536C28.6033 8.96 28.5073 8.464 28.3153 8.048C28.1393 7.616 27.8753 7.28 27.5233 7.04C27.1713 6.8 26.7473 6.68 26.2513 6.68C25.7553 6.68 25.3313 6.8 24.9793 7.04C24.6273 7.28 24.3553 7.616 24.1633 8.048C23.9873 8.464 23.8993 8.96 23.8993 9.536V9.584ZM35.3464 21.56C35.1704 21.56 35.0264 21.504 34.9144 21.392C34.8024 21.28 34.7464 21.136 34.7464 20.96V5.12C34.7464 4.944 34.8024 4.8 34.9144 4.688C35.0264 4.576 35.1704 4.52 35.3464 4.52H37.6264C37.8024 4.52 37.9464 4.576 38.0584 4.688C38.1704 4.8 38.2264 4.944 38.2264 5.12V6.032C38.6104 5.52 39.1064 5.104 39.7144 4.784C40.3224 4.448 41.0824 4.28 41.9944 4.28C42.8264 4.28 43.5464 4.416 44.1544 4.688C44.7784 4.944 45.2984 5.32 45.7144 5.816C46.1464 6.296 46.4744 6.88 46.6984 7.568C46.9384 8.256 47.0744 9.032 47.1064 9.896C47.1224 10.2 47.1304 10.488 47.1304 10.76C47.1304 11.032 47.1224 11.328 47.1064 11.648C47.0904 12.464 46.9624 13.216 46.7224 13.904C46.4984 14.592 46.1704 15.184 45.7384 15.68C45.3064 16.176 44.7784 16.56 44.1544 16.832C43.5464 17.104 42.8264 17.24 41.9944 17.24C41.1784 17.24 40.4664 17.096 39.8584 16.808C39.2664 16.504 38.7784 16.096 38.3944 15.584V20.96C38.3944 21.136 38.3384 21.28 38.2264 21.392C38.1144 21.504 37.9784 21.56 37.8184 21.56H35.3464ZM40.9144 14.36C41.5224 14.36 42.0024 14.232 42.3544 13.976C42.7064 13.704 42.9544 13.352 43.0984 12.92C43.2584 12.488 43.3544 12.016 43.3864 11.504C43.4184 11.008 43.4184 10.512 43.3864 10.016C43.3544 9.504 43.2584 9.032 43.0984 8.6C42.9544 8.168 42.7064 7.824 42.3544 7.568C42.0024 7.296 41.5224 7.16 40.9144 7.16C40.3224 7.16 39.8424 7.296 39.4744 7.568C39.1064 7.84 38.8424 8.184 38.6824 8.6C38.5224 9.016 38.4264 9.464 38.3944 9.944C38.3784 10.232 38.3704 10.528 38.3704 10.832C38.3704 11.136 38.3784 11.44 38.3944 11.744C38.4104 12.192 38.5064 12.616 38.6824 13.016C38.8744 13.4 39.1464 13.72 39.4984 13.976C39.8664 14.232 40.3384 14.36 40.9144 14.36ZM54.5961 17.24C53.6041 17.24 52.7481 17.128 52.0281 16.904C51.3241 16.664 50.7481 16.376 50.3001 16.04C49.8681 15.704 49.5401 15.368 49.3161 15.032C49.1081 14.68 48.9961 14.384 48.9801 14.144C48.9641 13.968 49.0201 13.824 49.1481 13.712C49.2761 13.6 49.4041 13.544 49.5321 13.544H51.8601C51.9081 13.544 51.9561 13.552 52.0041 13.568C52.0521 13.584 52.1001 13.624 52.1481 13.688C52.3561 13.832 52.5721 14 52.7961 14.192C53.0201 14.368 53.2761 14.52 53.5641 14.648C53.8681 14.776 54.2441 14.84 54.6921 14.84C55.2201 14.84 55.6681 14.736 56.0361 14.528C56.4041 14.304 56.5881 13.992 56.5881 13.592C56.5881 13.304 56.5001 13.064 56.3241 12.872C56.1641 12.68 55.8521 12.504 55.3881 12.344C54.9241 12.184 54.2361 12.008 53.3241 11.816C52.4601 11.624 51.7241 11.368 51.1161 11.048C50.5081 10.728 50.0521 10.328 49.7481 9.848C49.4441 9.352 49.2921 8.76 49.2921 8.072C49.2921 7.448 49.4841 6.848 49.8681 6.272C50.2681 5.696 50.8521 5.224 51.6201 4.856C52.3881 4.472 53.3481 4.28 54.5001 4.28C55.3801 4.28 56.1481 4.392 56.8041 4.616C57.4761 4.824 58.0361 5.096 58.4841 5.432C58.9321 5.752 59.2681 6.088 59.4921 6.44C59.7321 6.776 59.8601 7.072 59.8761 7.328C59.8921 7.488 59.8441 7.624 59.7321 7.736C59.6201 7.848 59.4921 7.904 59.3481 7.904H57.2121C57.1321 7.904 57.0601 7.896 56.9961 7.88C56.9321 7.848 56.8761 7.808 56.8281 7.76C56.6361 7.632 56.4361 7.488 56.2281 7.328C56.0361 7.152 55.8041 7 55.5321 6.872C55.2601 6.744 54.9081 6.68 54.4761 6.68C53.9481 6.68 53.5401 6.8 53.2521 7.04C52.9801 7.264 52.8441 7.552 52.8441 7.904C52.8441 8.128 52.9161 8.336 53.0601 8.528C53.2041 8.72 53.5001 8.896 53.9481 9.056C54.3961 9.216 55.0761 9.384 55.9881 9.56C57.0761 9.752 57.9401 10.04 58.5801 10.424C59.2201 10.808 59.6761 11.256 59.9481 11.768C60.2361 12.264 60.3801 12.8 60.3801 13.376C60.3801 14.128 60.1561 14.8 59.7081 15.392C59.2601 15.968 58.6041 16.424 57.7401 16.76C56.8921 17.08 55.8441 17.24 54.5961 17.24Z" fill="#565656"/>
<path d="M68.8448 17C68.6688 17 68.5248 16.944 68.4128 16.832C68.3008 16.72 68.2448 16.576 68.2448 16.4V0.8C68.2448 0.623999 68.3008 0.479999 68.4128 0.368C68.5248 0.255999 68.6688 0.199999 68.8448 0.199999H71.5088C71.6848 0.199999 71.8288 0.255999 71.9408 0.368C72.0528 0.479999 72.1088 0.623999 72.1088 0.8V13.784H79.5488C79.7248 13.784 79.8688 13.84 79.9808 13.952C80.0928 14.064 80.1488 14.208 80.1488 14.384V16.4C80.1488 16.576 80.0928 16.72 79.9808 16.832C79.8688 16.944 79.7248 17 79.5488 17H68.8448ZM87.6615 17.24C86.3335 17.24 85.2215 17.024 84.3255 16.592C83.4295 16.144 82.7415 15.512 82.2615 14.696C81.7975 13.88 81.5415 12.928 81.4935 11.84C81.4775 11.52 81.4695 11.16 81.4695 10.76C81.4695 10.344 81.4775 9.984 81.4935 9.68C81.5415 8.576 81.8135 7.624 82.3095 6.824C82.8055 6.008 83.5015 5.384 84.3975 4.952C85.2935 4.504 86.3815 4.28 87.6615 4.28C88.9255 4.28 90.0055 4.504 90.9015 4.952C91.7975 5.384 92.4935 6.008 92.9895 6.824C93.4855 7.624 93.7575 8.576 93.8055 9.68C93.8375 9.984 93.8535 10.344 93.8535 10.76C93.8535 11.16 93.8375 11.52 93.8055 11.84C93.7575 12.928 93.4935 13.88 93.0135 14.696C92.5495 15.512 91.8695 16.144 90.9735 16.592C90.0775 17.024 88.9735 17.24 87.6615 17.24ZM87.6615 14.6C88.4455 14.6 89.0375 14.36 89.4375 13.88C89.8375 13.384 90.0535 12.664 90.0855 11.72C90.1015 11.48 90.1095 11.16 90.1095 10.76C90.1095 10.36 90.1015 10.04 90.0855 9.8C90.0535 8.872 89.8375 8.16 89.4375 7.664C89.0375 7.168 88.4455 6.92 87.6615 6.92C86.8775 6.92 86.2775 7.168 85.8615 7.664C85.4615 8.16 85.2455 8.872 85.2135 9.8C85.1975 10.04 85.1895 10.36 85.1895 10.76C85.1895 11.16 85.1975 11.48 85.2135 11.72C85.2455 12.664 85.4615 13.384 85.8615 13.88C86.2775 14.36 86.8775 14.6 87.6615 14.6ZM102.22 22.28C101.036 22.28 100.052 22.12 99.2676 21.8C98.4836 21.496 97.8596 21.12 97.3956 20.672C96.9476 20.24 96.6276 19.808 96.4356 19.376C96.2436 18.944 96.1396 18.608 96.1236 18.368C96.1076 18.192 96.1636 18.048 96.2916 17.936C96.4196 17.824 96.5636 17.768 96.7236 17.768H99.2916C99.4356 17.768 99.5556 17.8 99.6516 17.864C99.7636 17.944 99.8516 18.072 99.9156 18.248C99.9956 18.44 100.108 18.64 100.252 18.848C100.396 19.072 100.612 19.256 100.9 19.4C101.204 19.544 101.604 19.616 102.1 19.616C102.66 19.616 103.124 19.536 103.492 19.376C103.86 19.216 104.132 18.944 104.308 18.56C104.5 18.176 104.596 17.656 104.596 17V15.392C104.212 15.808 103.724 16.152 103.132 16.424C102.556 16.696 101.844 16.832 100.996 16.832C100.164 16.832 99.4276 16.704 98.7876 16.448C98.1636 16.176 97.6436 15.8 97.2276 15.32C96.8116 14.824 96.4916 14.232 96.2676 13.544C96.0436 12.856 95.9156 12.08 95.8836 11.216C95.8676 10.784 95.8676 10.36 95.8836 9.944C95.9156 9.112 96.0436 8.352 96.2676 7.664C96.4916 6.976 96.8116 6.384 97.2276 5.888C97.6436 5.376 98.1636 4.984 98.7876 4.712C99.4276 4.424 100.164 4.28 100.996 4.28C101.876 4.28 102.628 4.448 103.252 4.784C103.876 5.12 104.388 5.536 104.788 6.032V5.12C104.788 4.96 104.844 4.824 104.956 4.712C105.068 4.584 105.204 4.52 105.364 4.52H107.716C107.876 4.52 108.012 4.584 108.124 4.712C108.252 4.824 108.316 4.96 108.316 5.12L108.34 16.664C108.34 17.864 108.108 18.88 107.644 19.712C107.18 20.544 106.492 21.176 105.58 21.608C104.684 22.056 103.564 22.28 102.22 22.28ZM102.1 14.024C102.676 14.024 103.14 13.896 103.492 13.64C103.86 13.368 104.132 13.032 104.308 12.632C104.484 12.216 104.58 11.784 104.596 11.336C104.612 11.16 104.62 10.912 104.62 10.592C104.62 10.256 104.612 10 104.596 9.824C104.58 9.376 104.484 8.952 104.308 8.552C104.132 8.136 103.86 7.8 103.492 7.544C103.14 7.288 102.676 7.16 102.1 7.16C101.492 7.16 101.012 7.296 100.66 7.568C100.308 7.824 100.052 8.168 99.8916 8.6C99.7316 9.032 99.6356 9.504 99.6036 10.016C99.5876 10.4 99.5876 10.776 99.6036 11.144C99.6356 11.672 99.7316 12.152 99.8916 12.584C100.052 13.016 100.308 13.368 100.66 13.64C101.012 13.896 101.492 14.024 102.1 14.024ZM117.22 22.28C116.036 22.28 115.052 22.12 114.268 21.8C113.484 21.496 112.86 21.12 112.396 20.672C111.948 20.24 111.628 19.808 111.436 19.376C111.244 18.944 111.14 18.608 111.124 18.368C111.108 18.192 111.164 18.048 111.292 17.936C111.42 17.824 111.564 17.768 111.724 17.768H114.292C114.436 17.768 114.556 17.8 114.652 17.864C114.764 17.944 114.852 18.072 114.916 18.248C114.996 18.44 115.108 18.64 115.252 18.848C115.396 19.072 115.612 19.256 115.9 19.4C116.204 19.544 116.604 19.616 117.1 19.616C117.66 19.616 118.124 19.536 118.492 19.376C118.86 19.216 119.132 18.944 119.308 18.56C119.5 18.176 119.596 17.656 119.596 17V15.392C119.212 15.808 118.724 16.152 118.132 16.424C117.556 16.696 116.844 16.832 115.996 16.832C115.164 16.832 114.428 16.704 113.788 16.448C113.164 16.176 112.644 15.8 112.228 15.32C111.812 14.824 111.492 14.232 111.268 13.544C111.044 12.856 110.916 12.08 110.884 11.216C110.868 10.784 110.868 10.36 110.884 9.944C110.916 9.112 111.044 8.352 111.268 7.664C111.492 6.976 111.812 6.384 112.228 5.888C112.644 5.376 113.164 4.984 113.788 4.712C114.428 4.424 115.164 4.28 115.996 4.28C116.876 4.28 117.628 4.448 118.252 4.784C118.876 5.12 119.388 5.536 119.788 6.032V5.12C119.788 4.96 119.844 4.824 119.956 4.712C120.068 4.584 120.204 4.52 120.364 4.52H122.716C122.876 4.52 123.012 4.584 123.124 4.712C123.252 4.824 123.316 4.96 123.316 5.12L123.34 16.664C123.34 17.864 123.108 18.88 122.644 19.712C122.18 20.544 121.492 21.176 120.58 21.608C119.684 22.056 118.564 22.28 117.22 22.28ZM117.1 14.024C117.676 14.024 118.14 13.896 118.492 13.64C118.86 13.368 119.132 13.032 119.308 12.632C119.484 12.216 119.58 11.784 119.596 11.336C119.612 11.16 119.62 10.912 119.62 10.592C119.62 10.256 119.612 10 119.596 9.824C119.58 9.376 119.484 8.952 119.308 8.552C119.132 8.136 118.86 7.8 118.492 7.544C118.14 7.288 117.676 7.16 117.1 7.16C116.492 7.16 116.012 7.296 115.66 7.568C115.308 7.824 115.052 8.168 114.892 8.6C114.732 9.032 114.636 9.504 114.604 10.016C114.588 10.4 114.588 10.776 114.604 11.144C114.636 11.672 114.732 12.152 114.892 12.584C115.052 13.016 115.308 13.368 115.66 13.64C116.012 13.896 116.492 14.024 117.1 14.024ZM131.932 17.24C130.092 17.24 128.628 16.728 127.54 15.704C126.468 14.68 125.9 13.192 125.836 11.24C125.836 11.112 125.836 10.944 125.836 10.736C125.836 10.512 125.836 10.336 125.836 10.208C125.9 8.976 126.18 7.92 126.676 7.04C127.172 6.144 127.868 5.464 128.764 5C129.66 4.52 130.708 4.28 131.908 4.28C133.252 4.28 134.372 4.56 135.268 5.12C136.18 5.664 136.86 6.416 137.308 7.376C137.772 8.32 138.004 9.408 138.004 10.64V11.192C138.004 11.352 137.94 11.488 137.812 11.6C137.7 11.712 137.564 11.768 137.404 11.768H129.556C129.556 11.784 129.556 11.816 129.556 11.864C129.556 11.896 129.556 11.928 129.556 11.96C129.572 12.472 129.668 12.944 129.844 13.376C130.036 13.792 130.3 14.128 130.636 14.384C130.988 14.64 131.404 14.768 131.884 14.768C132.284 14.768 132.612 14.712 132.868 14.6C133.124 14.488 133.332 14.352 133.492 14.192C133.668 14.032 133.796 13.896 133.876 13.784C134.02 13.624 134.132 13.528 134.212 13.496C134.308 13.448 134.452 13.424 134.644 13.424H137.14C137.3 13.424 137.428 13.472 137.524 13.568C137.636 13.648 137.684 13.768 137.668 13.928C137.652 14.184 137.516 14.504 137.26 14.888C137.02 15.256 136.66 15.624 136.18 15.992C135.7 16.344 135.1 16.64 134.38 16.88C133.676 17.12 132.86 17.24 131.932 17.24ZM129.556 9.584H134.26V9.536C134.26 8.96 134.164 8.464 133.972 8.048C133.796 7.616 133.532 7.28 133.18 7.04C132.828 6.8 132.404 6.68 131.908 6.68C131.412 6.68 130.988 6.8 130.636 7.04C130.284 7.28 130.012 7.616 129.82 8.048C129.644 8.464 129.556 8.96 129.556 9.536V9.584ZM140.979 17C140.819 17 140.683 16.944 140.571 16.832C140.459 16.72 140.403 16.576 140.403 16.4V5.12C140.403 4.96 140.459 4.824 140.571 4.712C140.683 4.584 140.819 4.52 140.979 4.52H143.331C143.491 4.52 143.627 4.584 143.739 4.712C143.867 4.824 143.931 4.96 143.931 5.12V6.08C144.331 5.584 144.819 5.2 145.395 4.928C145.987 4.656 146.667 4.52 147.435 4.52H148.467C148.627 4.52 148.763 4.576 148.875 4.688C148.987 4.8 149.043 4.944 149.043 5.12V7.184C149.043 7.36 148.987 7.504 148.875 7.616C148.763 7.728 148.627 7.784 148.467 7.784H146.355C145.651 7.784 145.099 7.984 144.699 8.384C144.299 8.768 144.099 9.32 144.099 10.04V16.4C144.099 16.576 144.043 16.72 143.931 16.832C143.819 16.944 143.675 17 143.499 17H140.979Z" fill="#C00FC4" fill-opacity="0.84"/>
</g>
<defs>
<filter id="filter0_d_2_3" x="0.776001" y="0.200012" width="152.267" height="30.08" filterUnits="userSpaceOnUse" color-interpolation-filters="sRGB">
<feFlood flood-opacity="0" result="BackgroundImageFix"/>
<feColorMatrix in="SourceAlpha" type="matrix" values="0 0 0 0 0 0 0 0 0 0 0 0 0 0 0 0 0 0 127 0" result="hardAlpha"/>
<feOffset dy="4"/>
<feGaussianBlur stdDeviation="2"/>
<feComposite in2="hardAlpha" operator="out"/>
<feColorMatrix type="matrix" values="0 0 0 0 0 0 0 0 0 0 0 0 0 0 0 0 0 0 0.25 0"/>
<feBlend mode="normal" in2="BackgroundImageFix" result="effect1_dropShadow_2_3"/>
<feBlend mode="normal" in="SourceGraphic" in2="effect1_dropShadow_2_3" result="shape"/>
</filter>
</defs>
</svg>
