<svg width="232" height="44" viewBox="0 0 232 44" fill="none" xmlns="http://www.w3.org/2000/svg">
<g filter="url(#filter0_d_2_3)">
<path d="M16.868 26L11.828 16.64H11.072V26H4.016V0.619998H15.14C17.18 0.619998 18.908 0.979999 20.324 1.7C21.74 2.396 22.808 3.368 23.528 4.616C24.248 5.84 24.608 7.22 24.608 8.756C24.608 10.484 24.128 12.008 23.168 13.328C22.232 14.624 20.852 15.548 19.028 16.1L24.752 26H16.868ZM11.072 11.816H14.564C15.524 11.816 16.244 11.588 16.724 11.132C17.204 10.676 17.444 10.016 17.444 9.152C17.444 8.336 17.192 7.7 16.688 7.244C16.208 6.764 15.5 6.524 14.564 6.524H11.072V11.816ZM47.1128 15.668C47.1128 16.22 47.0768 16.772 47.0048 17.324H33.6488C33.7208 18.428 34.0208 19.256 34.5488 19.808C35.1008 20.336 35.7968 20.6 36.6368 20.6C37.8128 20.6 38.6528 20.072 39.1568 19.016H46.6808C46.3688 20.408 45.7568 21.656 44.8448 22.76C43.9568 23.84 42.8288 24.692 41.4608 25.316C40.0928 25.94 38.5808 26.252 36.9248 26.252C34.9328 26.252 33.1568 25.832 31.5968 24.992C30.0608 24.152 28.8488 22.952 27.9608 21.392C27.0968 19.832 26.6648 17.996 26.6648 15.884C26.6648 13.772 27.0968 11.948 27.9608 10.412C28.8248 8.852 30.0248 7.652 31.5608 6.812C33.1208 5.972 34.9088 5.552 36.9248 5.552C38.9168 5.552 40.6808 5.96 42.2168 6.776C43.7528 7.592 44.9528 8.768 45.8168 10.304C46.6808 11.816 47.1128 13.604 47.1128 15.668ZM39.9128 13.904C39.9128 13.04 39.6248 12.368 39.0488 11.888C38.4728 11.384 37.7528 11.132 36.8888 11.132C36.0248 11.132 35.3168 11.372 34.7648 11.852C34.2128 12.308 33.8528 12.992 33.6848 13.904H39.9128ZM57.0564 8.612C57.6084 7.676 58.3884 6.932 59.3964 6.38C60.4044 5.828 61.5924 5.552 62.9604 5.552C64.5684 5.552 66.0204 5.972 67.3164 6.812C68.6364 7.652 69.6684 8.852 70.4124 10.412C71.1804 11.972 71.5644 13.796 71.5644 15.884C71.5644 17.972 71.1804 19.808 70.4124 21.392C69.6684 22.952 68.6364 24.152 67.3164 24.992C66.0204 25.832 64.5684 26.252 62.9604 26.252C61.5924 26.252 60.4044 25.976 59.3964 25.424C58.4124 24.872 57.6324 24.128 57.0564 23.192V35.648H50.0004V5.804H57.0564V8.612ZM64.4004 15.884C64.4004 14.564 64.0404 13.544 63.3204 12.824C62.6244 12.08 61.7604 11.708 60.7284 11.708C59.6964 11.708 58.8204 12.08 58.1004 12.824C57.4044 13.568 57.0564 14.588 57.0564 15.884C57.0564 17.204 57.4044 18.236 58.1004 18.98C58.8204 19.724 59.6964 20.096 60.7284 20.096C61.7604 20.096 62.6244 19.724 63.3204 18.98C64.0404 18.212 64.4004 17.18 64.4004 15.884ZM83.0731 26.252C81.2491 26.252 79.6171 25.952 78.1771 25.352C76.7611 24.728 75.6331 23.888 74.7931 22.832C73.9771 21.752 73.5211 20.54 73.4251 19.196H80.2651C80.3611 19.844 80.6611 20.348 81.1651 20.708C81.6691 21.068 82.2931 21.248 83.0371 21.248C83.6131 21.248 84.0691 21.128 84.4051 20.888C84.7411 20.648 84.9091 20.336 84.9091 19.952C84.9091 19.448 84.6331 19.076 84.0811 18.836C83.5291 18.596 82.6171 18.332 81.3451 18.044C79.9051 17.756 78.7051 17.432 77.7451 17.072C76.7851 16.712 75.9451 16.124 75.2251 15.308C74.5291 14.492 74.1811 13.388 74.1811 11.996C74.1811 10.796 74.5051 9.716 75.1531 8.756C75.8011 7.772 76.7491 6.992 77.9971 6.416C79.2691 5.84 80.7931 5.552 82.5691 5.552C85.2091 5.552 87.2851 6.2 88.7971 7.496C90.3091 8.792 91.1851 10.496 91.4251 12.608H85.0531C84.9331 11.96 84.6451 11.468 84.1891 11.132C83.7571 10.772 83.1691 10.592 82.4251 10.592C81.8491 10.592 81.4051 10.7 81.0931 10.916C80.8051 11.132 80.6611 11.432 80.6611 11.816C80.6611 12.296 80.9371 12.668 81.4891 12.932C82.0411 13.172 82.9291 13.424 84.1531 13.688C85.6171 14 86.8291 14.348 87.7891 14.732C88.7731 15.116 89.6251 15.74 90.3451 16.604C91.0891 17.444 91.4611 18.596 91.4611 20.06C91.4611 21.236 91.1131 22.292 90.4171 23.228C89.7451 24.164 88.7731 24.908 87.5011 25.46C86.2531 25.988 84.7771 26.252 83.0731 26.252ZM108.877 20.6H116.761V26H101.821V0.619998H108.877V20.6ZM128.9 26.252C126.884 26.252 125.072 25.832 123.464 24.992C121.88 24.152 120.632 22.952 119.72 21.392C118.808 19.832 118.352 17.996 118.352 15.884C118.352 13.796 118.808 11.972 119.72 10.412C120.656 8.852 121.916 7.652 123.5 6.812C125.108 5.972 126.92 5.552 128.936 5.552C130.952 5.552 132.752 5.972 134.336 6.812C135.944 7.652 137.204 8.852 138.116 10.412C139.052 11.972 139.52 13.796 139.52 15.884C139.52 17.972 139.052 19.808 138.116 21.392C137.204 22.952 135.944 24.152 134.336 24.992C132.728 25.832 130.916 26.252 128.9 26.252ZM128.9 20.132C129.884 20.132 130.7 19.772 131.348 19.052C132.02 18.308 132.356 17.252 132.356 15.884C132.356 14.516 132.02 13.472 131.348 12.752C130.7 12.032 129.896 11.672 128.936 11.672C127.976 11.672 127.172 12.032 126.524 12.752C125.876 13.472 125.552 14.516 125.552 15.884C125.552 17.276 125.864 18.332 126.488 19.052C127.112 19.772 127.916 20.132 128.9 20.132ZM149.843 5.552C151.211 5.552 152.399 5.828 153.407 6.38C154.439 6.932 155.231 7.676 155.783 8.612V5.804H162.839V25.784C162.839 27.68 162.479 29.384 161.759 30.896C161.039 32.432 159.911 33.656 158.375 34.568C156.863 35.48 154.943 35.936 152.615 35.936C149.495 35.936 146.999 35.204 145.127 33.74C143.255 32.276 142.187 30.284 141.923 27.764H148.871C149.015 28.412 149.375 28.916 149.951 29.276C150.527 29.636 151.271 29.816 152.183 29.816C154.583 29.816 155.783 28.472 155.783 25.784V23.192C155.231 24.128 154.439 24.872 153.407 25.424C152.399 25.976 151.211 26.252 149.843 26.252C148.235 26.252 146.771 25.832 145.451 24.992C144.155 24.152 143.123 22.952 142.355 21.392C141.611 19.808 141.239 17.972 141.239 15.884C141.239 13.796 141.611 11.972 142.355 10.412C143.123 8.852 144.155 7.652 145.451 6.812C146.771 5.972 148.235 5.552 149.843 5.552ZM155.783 15.884C155.783 14.588 155.423 13.568 154.703 12.824C154.007 12.08 153.143 11.708 152.111 11.708C151.055 11.708 150.179 12.08 149.483 12.824C148.787 13.544 148.439 14.564 148.439 15.884C148.439 17.18 148.787 18.212 149.483 18.98C150.179 19.724 151.055 20.096 152.111 20.096C153.143 20.096 154.007 19.724 154.703 18.98C155.423 18.236 155.783 17.204 155.783 15.884ZM174.312 5.552C175.68 5.552 176.868 5.828 177.876 6.38C178.908 6.932 179.7 7.676 180.252 8.612V5.804H187.308V25.784C187.308 27.68 186.948 29.384 186.228 30.896C185.508 32.432 184.38 33.656 182.844 34.568C181.332 35.48 179.412 35.936 177.084 35.936C173.964 35.936 171.468 35.204 169.596 33.74C167.724 32.276 166.656 30.284 166.392 27.764H173.34C173.484 28.412 173.844 28.916 174.42 29.276C174.996 29.636 175.74 29.816 176.652 29.816C179.052 29.816 180.252 28.472 180.252 25.784V23.192C179.7 24.128 178.908 24.872 177.876 25.424C176.868 25.976 175.68 26.252 174.312 26.252C172.704 26.252 171.24 25.832 169.92 24.992C168.624 24.152 167.592 22.952 166.824 21.392C166.08 19.808 165.708 17.972 165.708 15.884C165.708 13.796 166.08 11.972 166.824 10.412C167.592 8.852 168.624 7.652 169.92 6.812C171.24 5.972 172.704 5.552 174.312 5.552ZM180.252 15.884C180.252 14.588 179.892 13.568 179.172 12.824C178.476 12.08 177.612 11.708 176.58 11.708C175.524 11.708 174.648 12.08 173.952 12.824C173.256 13.544 172.908 14.564 172.908 15.884C172.908 17.18 173.256 18.212 173.952 18.98C174.648 19.724 175.524 20.096 176.58 20.096C177.612 20.096 178.476 19.724 179.172 18.98C179.892 18.236 180.252 17.204 180.252 15.884ZM210.625 15.668C210.625 16.22 210.589 16.772 210.517 17.324H197.161C197.233 18.428 197.533 19.256 198.061 19.808C198.613 20.336 199.309 20.6 200.149 20.6C201.325 20.6 202.165 20.072 202.669 19.016H210.193C209.881 20.408 209.269 21.656 208.357 22.76C207.469 23.84 206.341 24.692 204.973 25.316C203.605 25.94 202.093 26.252 200.437 26.252C198.445 26.252 196.669 25.832 195.109 24.992C193.573 24.152 192.361 22.952 191.473 21.392C190.609 19.832 190.177 17.996 190.177 15.884C190.177 13.772 190.609 11.948 191.473 10.412C192.337 8.852 193.537 7.652 195.073 6.812C196.633 5.972 198.421 5.552 200.437 5.552C202.429 5.552 204.193 5.96 205.729 6.776C207.265 7.592 208.465 8.768 209.329 10.304C210.193 11.816 210.625 13.604 210.625 15.668ZM203.425 13.904C203.425 13.04 203.137 12.368 202.561 11.888C201.985 11.384 201.265 11.132 200.401 11.132C199.537 11.132 198.829 11.372 198.277 11.852C197.725 12.308 197.365 12.992 197.197 13.904H203.425ZM220.568 9.368C221.36 8.216 222.32 7.304 223.448 6.632C224.576 5.96 225.788 5.624 227.084 5.624V13.148H225.104C223.568 13.148 222.428 13.448 221.684 14.048C220.94 14.648 220.568 15.692 220.568 17.18V26H213.512V5.804H220.568V9.368Z" fill="white"/>
</g>
<defs>
<filter id="filter0_d_2_3" x="0.0159912" y="0.619995" width="231.068" height="43.316" filterUnits="userSpaceOnUse" color-interpolation-filters="sRGB">
<feFlood flood-opacity="0" result="BackgroundImageFix"/>
<feColorMatrix in="SourceAlpha" type="matrix" values="0 0 0 0 0 0 0 0 0 0 0 0 0 0 0 0 0 0 127 0" result="hardAlpha"/>
<feOffset dy="4"/>
<feGaussianBlur stdDeviation="2"/>
<feComposite in2="hardAlpha" operator="out"/>
<feColorMatrix type="matrix" values="0 0 0 0 0 0 0 0 0 0 0 0 0 0 0 0 0 0 0.25 0"/>
<feBlend mode="normal" in2="BackgroundImageFix" result="effect1_dropShadow_2_3"/>
<feBlend mode="normal" in="SourceGraphic" in2="effect1_dropShadow_2_3" result="shape"/>
</filter>
</defs>
</svg>
